<svg width="330" height="330" xmlns="http://www.w3.org/2000/svg"><g transform="translate(56.501 64.041)" fill="#E0C7B2" stroke="#AD927C" stroke-width="10" id="chocolate" fill-rule="evenodd"><path d="M66.791 13.401c31.963-11.043 68.216-11.284 83.136-1.266 12.99 8.723 21.737 20.554 26.134 36.005 4.492 15.78 4.508 35.203.148 58.755-4.017 21.702 1.545 35.854 6.462 48.114 3.283 8.188 6.478 15.375 4.482 24.044-1.561 6.787-6.233 14.33-15.678 23.918-15.105 15.334-33.125 19.387-50.971 17.653-28.188-2.739-55.97-19.526-72.52-30.888-15.052-10.333-30.545-32.563-38.173-59.346-6.152-21.6-7.172-46.237 1.487-70.224C19.659 37.002 42.195 21.9 66.79 13.401Z" id="tan"/></g></svg>