<svg width="330" height="330" xmlns="http://www.w3.org/2000/svg"><path d="M123.292 77.442c31.963-11.043 68.216-11.283 83.136-1.265 12.99 8.722 21.737 20.554 26.134 36.004 4.492 15.781 4.508 35.204.148 58.756-4.017 21.701 1.546 35.853 6.462 48.113 3.283 8.188 6.478 15.375 4.482 24.045-1.561 6.786-6.233 14.329-15.677 23.917-15.105 15.334-33.126 19.387-50.972 17.653-28.187-2.739-55.97-19.526-72.52-30.888-15.052-10.333-30.545-32.563-38.173-59.346-6.152-21.6-7.172-46.237 1.487-70.224 8.361-23.164 30.897-38.267 55.493-46.765Z" fill="#F4E8FF" stroke="#CCA4F1" stroke-width="10" id="purple" fill-rule="evenodd"/></svg>